<svg xmlns="http://www.w3.org/2000/svg" style="display: none;">
  
    <symbol id="icon-arrow-right" viewBox="0 0 512 512">
      <path d="m457 274c0 11-3 19-10 26l-186 186c-8 7-17 11-26 11c-10 0-19-4-26-11l-22-21c-7-7-10-16-10-26c0-10 3-19 10-26l84-84l-201 0c-10 0-18-3-24-11c-6-7-9-15-9-25l0-37c0-10 3-19 9-26c6-7 14-11 24-11l201 0l-84-84c-7-6-10-15-10-25c0-11 3-19 10-26l22-21c7-8 16-11 26-11c10 0 18 3 26 11l186 186c7 6 10 15 10 25z"/>
    </symbol>
  
    <symbol id="icon-arrow-graph-up-right" viewBox="0 0 512 512">
      <path d="m320 128l160 0l0 160l-61-61l-131 141l-107-112l-149 128l149-203l107 107l94-98z"/>
    </symbol>
  
    <symbol id="icon-arrow-graph-down-right" viewBox="0 0 512 512">
      <path d="m320 384l62-62l-94-98l-107 107l-149-203l149 128l107-112l131 141l61-61l0 160z"/>
    </symbol>
  
    <symbol id="icon-pedestrian" viewBox="0 0 512 512">
      <path d="m171 295c0 0 1-2 2-6l24-79c2-5 4-8 8-10l32-17c2-1 5-1 9-1c17 0 26 6 26 18l0 2l-8 61l53 47c3 2 5 6 6 10l16 70c0 1 0 2 0 4c0 5-1 8-5 11c-3 3-7 4-11 4c-8 0-13-4-15-12l-18-64l-56-48c-4-4-6-8-6-13l0-1l6-49c-1 0-3 0-5 1c-3 1-4 2-5 2l-26 66c-2 11-7 16-13 16c-4 0-8-1-10-3c-3-3-4-6-4-9z m5 100c0-3 0-6 2-7l22-42l11-32c2-4 4-7 7-9c3-2 6-3 10-3c5 0 9 1 13 5c3 3 5 8 5 13c0 1 0 2-1 5l-12 34c0 1 0 1 0 2c-1 1-1 2-1 3l-29 39c-3 5-7 7-13 7c-4 0-8-1-10-4c-3-3-4-7-4-11z m73-247c0-8 2-14 8-19c5-5 12-8 19-8c8 0 15 3 20 8c5 5 7 11 7 19c0 7-3 14-8 19c-6 6-12 9-19 9c-8 0-14-3-19-9c-6-6-8-12-8-19z m29 86c0-4 2-8 6-12c3-3 7-5 11-5c5 0 8 2 12 6l29 31c3 3 5 6 5 10c0 4-2 7-5 10c-3 3-6 5-10 5c-4 0-7-2-10-5l-34-30c-2-3-4-7-4-10z"/>
    </symbol>
  
    <symbol id="icon-bicycle" viewBox="0 0 512 512">
      <path d="m15 319c0-25 9-47 27-64c18-18 39-27 65-27c18 0 35 4 49 14l25-34l-6-12l-19 5c0 0-1 0-2 0c-1 0-2 0-3 0c-4 0-8-2-12-5c-3-3-5-7-5-12l0-31c0-5 2-10 5-13c4-3 8-5 12-5c2 0 4 0 5 1l58 15c3 1 6 3 9 6c2 3 4 7 4 11c0 4-2 7-4 11c-3 3-6 5-9 6l-14 4l3 7l132 0l-2-4c-2-7-5-13-8-17c-3-5-6-9-9-11c-2-2-5-4-7-5c-3-2-5-2-6-3c-1 0-3 0-4 0c-4 0-8-2-12-5c-4-3-6-7-6-13c0-4 2-9 5-12c4-3 8-5 13-5c3 0 7 1 11 2c5 1 10 3 18 7c7 3 14 9 21 18c7 8 13 19 18 32c8 22 15 38 19 49c8-1 15-2 19-2c25 0 47 9 65 27c18 18 27 40 27 65c0 25-9 47-27 65c-18 18-40 27-65 27c-26 0-47-9-65-27c-18-18-27-39-27-65c0-15 4-30 11-43c7-14 17-25 30-33c-1-1-2-5-5-11c-2-6-4-11-5-14l-84 112l-10 5l-52 0c-4 22-15 40-32 54c-17 15-37 22-59 22c-26 0-47-9-65-27c-18-18-27-39-27-65z m35 0c0 16 6 29 17 41c11 11 24 16 40 16c12 0 24-4 34-11c11-8 18-18 21-30l-51 0l-10-19l34-46c-9-5-19-7-28-7c-16 0-29 5-40 16c-11 11-17 24-17 40z m83-9l30 0c-1-9-5-17-10-25z m43-52c13 15 21 32 23 52l31 0l-36-75z m39-37l37 78l58-78z m133 98c0 16 6 29 17 40c11 12 24 17 40 17c16 0 29-5 40-16c11-12 17-25 17-41c0-15-6-29-17-40c-11-11-24-17-40-17l-5 0c3 8 6 16 10 26c4 9 7 16 9 20c2 5 2 7 3 7c1 2 1 5 1 7c0 4-1 8-5 12c-3 3-7 5-12 5c-4 0-7-1-10-3c-3-1-5-4-6-7c0 0-1-3-3-7c-2-4-5-11-9-20c-3-9-7-18-10-26c-14 12-20 26-20 43z"/>
    </symbol>
  
    <symbol id="icon-car-side" viewBox="0 0 512 512">
      <path d="m14 292c0-3 0-6 1-10c1-3 3-7 5-10c2-4 4-7 6-10c2-3 4-6 6-10c3-3 5-6 7-8c2-2 3-4 5-6c2-2 4-3 4-3c6-7 14-13 23-17c4-8 8-15 13-23c5-8 12-16 22-26c10-10 21-19 32-26c12-7 27-13 45-18c18-5 37-8 58-8c15 0 29 1 42 4c14 2 26 5 36 9c11 4 20 9 30 15c9 5 17 11 24 17c6 5 13 12 19 18c5 7 10 12 14 17c3 5 6 11 9 16c7 1 13 4 19 6c6 3 11 6 15 9c4 2 7 5 10 7c3 3 5 5 6 6c2 2 2 3 2 3c5 5 11 13 16 22c6 8 10 15 11 21c3 11 4 20 4 26c0 4 0 6-1 7c-4 3-7 4-11 4c-5 0-9-3-11-8c-1-2-2-4-2-5c-1-1-2-3-4-7c-3-4-5-8-8-11c-2-3-6-7-10-11c-5-4-9-8-14-10c-5-3-11-5-18-7c-7-2-14-3-22-3c-18 0-34 6-49 20c-14 13-21 27-21 41c0 5-2 8-5 12c-3 3-7 4-11 4l-103 0c-5 0-8-1-11-4c-3-3-5-7-5-12c-1-2-2-6-4-10c-2-5-5-10-9-16c-4-6-9-12-15-17c-5-6-12-10-19-14c-8-4-16-6-24-6c-18 0-32 4-44 10c-11 7-22 18-32 34c-4 5-8 7-14 7c-5 0-9-2-13-6c-3-3-4-8-4-13z m41 42c0-16 6-30 17-41c12-12 26-18 42-18c16 0 30 6 42 18c11 11 17 25 17 41c0 17-6 31-17 42c-12 12-26 17-42 17c-16 0-30-5-42-17c-11-11-17-25-17-42z m32 0c0 8 3 14 8 20c5 5 12 7 19 7c8 0 14-2 19-7c6-6 8-12 8-20c0-7-2-14-8-19c-5-5-11-8-19-8c-7 0-14 3-19 8c-5 5-8 12-8 19z m10 0c0-4 2-8 5-12c4-3 8-5 12-5c4 0 8 2 12 5c4 4 6 8 6 12c0 5-2 8-6 12c-4 4-8 6-12 6c-4 0-8-2-12-6c-3-4-5-7-5-12z m20-130c19-3 40-5 61-5l-5-37c-23 9-41 23-56 42z m44 32c0 4 2 8 6 12c4 4 8 6 12 6c4 0 8-2 12-6c3-4 5-8 5-12c0-4-2-8-5-12c-4-3-8-5-12-5c-4 0-8 2-12 5c-4 4-6 8-6 12z m43-84l6 46l33 0c50 0 92 2 128 7c-7-8-13-14-21-20c-7-6-16-12-27-18c-10-5-23-10-37-13c-14-3-29-5-45-5c-14 0-26 1-37 3z m134 182c0-16 6-30 18-41c11-12 25-18 42-18c16 0 30 6 41 18c12 11 18 25 18 41c0 17-6 31-18 42c-11 12-25 17-41 17c-17 0-31-5-42-17c-12-11-18-25-18-42z m33 0c0 8 2 14 7 20c6 5 12 7 20 7c7 0 14-2 19-7c5-6 7-12 7-20c0-7-2-14-7-19c-5-5-12-8-19-8c-8 0-14 3-20 8c-5 5-7 12-7 19z m9 0c0-4 2-8 6-12c3-3 7-5 12-5c4 0 8 2 11 5c4 4 6 8 6 12c0 5-2 8-6 12c-3 4-7 6-11 6c-5 0-9-2-12-6c-4-4-6-7-6-12z"/>
    </symbol>
  
    <symbol id="icon-widget" viewBox="0 0 512 512">
      <path d="m453 222l-52-5c-4-12-9-25-15-36l33-41c4-4 4-11 0-15l-32-32c-3-2-5-3-8-3c-3 0-5 1-7 3l-41 33c-12-6-24-11-36-15l-5-52c-1-6-6-10-11-10l-46 0c-5 0-10 4-11 10l-5 52c-12 4-24 9-36 15l-41-33c-2-2-4-3-7-3c-3 0-5 1-8 3l-32 32c-4 4-4 11 0 15l33 41c-6 11-11 24-15 36l-52 5c-6 1-10 6-10 11l0 46c0 5 4 10 10 11l52 5c4 12 9 24 15 36l-33 41c-4 4-4 11 0 15l32 32c3 2 5 3 8 3c3 0 5-1 7-3l41-33c12 6 24 11 36 15l5 52c1 6 6 10 11 10l46 0c5 0 10-4 11-10l5-52c12-4 24-9 36-15l41 33c2 2 4 3 7 3c3 0 5-1 8-3l32-32c4-4 4-11 0-15l-33-41c6-12 11-24 15-36l52-5c6-1 10-6 10-11l0-46c0-5-4-10-10-11z m-197 95c-34 0-61-27-61-61c0-34 27-61 61-61c34 0 61 27 61 61c0 34-27 61-61 61z"/>
    </symbol>
  
    <symbol id="icon-mountains" viewBox="0 0 512 512">
      <path d="m488 400l0 0l-170-295l0 0c-4-8-12-13-21-13c-9 0-17 6-21 14l-113 196l-28-48l0 0c-2-4-6-7-11-7c-5 0-9 3-11 7l-81 140l0 0l0 1l-8 13c-1 2-2 3-2 5c0 4 4 7 8 7c0 0 1 0 2-1l0 1l445 0l0 0c7-1 13-7 13-14c0-2-1-4-2-6z"/>
    </symbol>
  
</svg>
